<svg xmlns="http://www.w3.org/2000/svg" viewBox="0 0 64 64">
  <!-- Blue pinwheel/kaleidoscope icon matching Kolidiscope logo -->
  <g transform="translate(32,32)">
    <polygon points="0,-2 -8,-28 0,-8" fill="#1a4ca0" transform="rotate(0)"/>
    <polygon points="0,-2 -8,-28 0,-8" fill="#2058b0" transform="rotate(36)"/>
    <polygon points="0,-2 -8,-28 0,-8" fill="#1a4ca0" transform="rotate(72)"/>
    <polygon points="0,-2 -8,-28 0,-8" fill="#2058b0" transform="rotate(108)"/>
    <polygon points="0,-2 -8,-28 0,-8" fill="#1a4ca0" transform="rotate(144)"/>
    <polygon points="0,-2 -8,-28 0,-8" fill="#2058b0" transform="rotate(180)"/>
    <polygon points="0,-2 -8,-28 0,-8" fill="#1a4ca0" transform="rotate(216)"/>
    <polygon points="0,-2 -8,-28 0,-8" fill="#2058b0" transform="rotate(252)"/>
    <polygon points="0,-2 -8,-28 0,-8" fill="#1a4ca0" transform="rotate(288)"/>
    <polygon points="0,-2 -8,-28 0,-8" fill="#2058b0" transform="rotate(324)"/>
  </g>
</svg>
